<svg width="54" height="50" viewBox="0 0 54 50" fill="none" xmlns="http://www.w3.org/2000/svg">
<path d="M23.0163 2.19134V11.1108C23.0163 12.321 22.0353 13.3013 20.8259 13.3013C16.51 13.3013 14.1621 17.7275 13.8362 26.465H20.8259C22.0352 26.465 23.0163 27.4466 23.0163 28.6555V47.4893C23.0163 48.6991 22.0353 49.6793 20.8259 49.6793H2.19067C0.981499 49.6793 4.95911e-05 48.698 4.95911e-05 47.4893V28.6553C4.95911e-05 24.4672 0.422859 20.6239 1.25286 17.2297C2.10552 13.7501 3.41438 10.708 5.14222 8.1871C6.91922 5.59649 9.14399 3.5636 11.7508 2.14785C14.3774 0.723068 17.4307 -4.19617e-05 20.8268 -4.19617e-05C22.0352 0.00087738 23.0163 0.982025 23.0163 2.19134ZM51.2667 13.302C52.476 13.302 53.4567 12.321 53.4567 11.1125V2.19119C53.4567 0.982029 52.476 0.00164413 51.2667 0.00164413C47.8722 0.00164413 44.8175 0.724911 42.1925 2.14954C39.5843 3.56514 37.3599 5.59634 35.583 8.18879C33.8541 10.7097 32.5454 13.7519 31.6927 17.2332C30.8623 20.6275 30.4404 24.4709 30.4404 28.6572V47.4911C30.4404 48.7009 31.422 49.6812 32.6309 49.6812H51.2667C52.476 49.6812 53.4567 48.7 53.4567 47.4911V28.6572C53.4567 27.4476 52.476 26.4667 51.2667 26.4667H44.3752C44.6971 17.7284 47.0111 13.302 51.2667 13.302Z" fill="#007BFF"/>
</svg>
