<svg width="1410" height="224" viewBox="0 0 1410 224" fill="none" xmlns="http://www.w3.org/2000/svg">
<g clip-path="url(#clip0_1_460)">
<path d="M92.6087 67.0473C116.152 65.1977 138.49 69.4188 159.025 80.9466C161.6 82.3933 169.813 86.6143 170.07 89.233C170.411 92.7033 153.59 115.768 150.224 116.235C146.104 116.812 126.847 107.976 120.584 106.401C95.9471 100.193 71.9627 104.121 54.6182 123.523C11.4132 171.841 58.6095 240.349 121.109 224.518C126.534 223.144 144.927 213.676 147.309 214.317C150.068 215.059 165.288 237.437 165.454 240.367C165.674 244.259 33.4331 271.02 29.8648 272.842C-41.095 309.092 -10.3548 236.686 0.984467 154.371C7.78065 104.982 42.3685 70.9936 92.6087 67.0473Z" fill="#007BFE"/>
<path d="M468.926 263.634V170.697C468.926 157.704 456.999 142.285 443.627 140.948C429.943 139.584 413.978 142.853 407.283 156.02C406.492 157.567 403.632 164.984 403.632 166.119V263.634H366.846V114.844C366.846 110.65 385.091 111.355 388.494 111.602C398.04 112.307 401.443 113.488 405.011 122.608C419.845 112.252 438.045 105.742 456.438 108.05C529.016 117.169 500.875 209.566 506.678 258.643C507.322 260.447 503.606 263.634 502.493 263.634H468.926Z" fill="#007BFE"/>
<path d="M713.553 108.892V204.575C713.553 205.005 715.963 211.616 716.432 212.697C726.199 235.395 770.066 233.024 775.694 207.835C781.469 181.968 774.765 141.799 776.972 113.882C777.11 112.115 777.515 110.567 777.938 108.892H813.804V202.744C813.804 220.535 800.662 242.345 785.571 251.547C740.573 278.998 677.347 257.81 675.82 200.949L675.857 108.892H713.563H713.553Z" fill="#007BFE"/>
<path d="M580.94 107.336C596.316 105.898 611.279 108.325 625.745 113.452C628.035 114.267 638.712 118.525 639.558 119.871C640.036 120.631 640 121.217 639.972 122.059C639.871 124.696 627.354 146.845 625.248 147.807C621.855 149.354 600.538 141.699 594.771 140.628C589.52 139.657 586.449 138.769 581.133 140.491C568.276 144.648 567.118 156.752 579.882 162.777C599.517 172.052 624.458 170.633 639.54 189.449C653.684 207.103 647.633 234.737 630.803 248.526C604.74 269.888 564.386 265.456 535.739 251.593C533.863 250.687 528.805 248.901 528.732 246.75C528.676 244.836 538.747 224.362 540.485 221.79C541.239 220.682 541.68 219.336 543.152 218.905C546.628 217.889 565.205 226.972 570.999 228.382C581.326 230.891 604.722 233.107 609.44 220.856C613.633 209.969 605.77 207.066 597.236 204.09C571.486 195.108 533.771 192.489 532.346 157C531.178 127.818 553.479 109.899 580.94 107.327V107.336Z" fill="#007BFE"/>
<path d="M1233.92 119.11C1234.68 120.319 1234.06 124.494 1233.35 126.041C1230.06 129.548 1221.85 148.969 1218.48 149.747C1215.12 150.525 1195.97 142.413 1188.58 141.827C1154.72 139.153 1131.75 164.26 1140 197.516C1146.94 225.461 1174.17 233.335 1199.82 226.34C1204.19 225.149 1216.76 219.024 1219.61 219.848C1221.99 220.535 1235.77 241.466 1235.92 244.048C1236.13 247.884 1226.38 253.351 1223.07 254.99C1168.54 281.9 1097.26 245.577 1101.65 181.712C1105.85 120.685 1162.53 93.8478 1217.48 112.151C1219.59 112.856 1233.44 118.378 1233.92 119.128V119.11Z" fill="#0360C3"/>
<path d="M999.563 147.348H968.295V212.816C968.295 220.773 977.105 228.382 984.61 229.535C989.024 230.213 994.247 229.032 998.184 229.755C1004.22 230.854 1002.65 251.685 1000.98 256.345C997.42 266.289 979 264.375 970.861 262.443C919.011 250.128 932.539 186.803 930.58 147.348H912.188V116.675C912.188 111.492 927.352 112.518 929.587 109.276C933.128 104.131 927.113 92.0351 936.08 83.6937C938.6 81.3588 961.701 69.2725 964.111 69.4922C965.849 69.6479 967.127 71.0396 967.339 72.7427C968.727 79.3444 965.407 106.658 967.817 110.723C970.033 114.468 999.554 110.65 999.554 115.75V147.339L999.563 147.348Z" fill="#007BFE"/>
<path d="M846.901 263.633V42.5085C846.901 42.3528 848.318 40.897 848.759 40.6955C850.663 39.8074 872.679 39.8349 875.668 40.43C881.213 41.5471 882.538 45.9421 883.614 50.8316L883.733 254.981C884.101 256.546 881.719 263.643 880.478 263.643H846.911L846.901 263.633Z" fill="#007BFE"/>
<path d="M1074.97 119.88V263.634H1040.03V139.566C1040.03 138.852 1041.78 137.139 1042.46 136.498C1044.63 134.438 1068.52 120.64 1071.05 120.09C1072.35 119.806 1073.66 119.816 1074.97 119.88Z" fill="#0360C3"/>
<path d="M1055.34 67.1032C1069.71 66.5355 1080.63 84.2438 1071.7 96.9344C1056.85 118.031 1026.11 95.0299 1040.47 75.9115C1043.76 71.5257 1049.67 67.3229 1055.34 67.1032Z" fill="#0360C3"/>
<path d="M1325.85 107.336C1220.16 113.058 1228.98 271.838 1338.44 263.625C1466.79 296.913 1433.4 101.512 1325.85 107.336ZM1369.43 206.572C1359.28 229.875 1321.6 236.925 1303.37 221.204C1279.15 200.327 1282.81 152.907 1316.1 143.421C1356.63 131.875 1385.33 170.011 1369.43 206.581V206.572Z" fill="#0360C3"/>
<path d="M323.973 145.178C290.222 86.1934 194.294 97.2725 178.586 165.469C163.504 230.973 221.626 280.591 284.548 258.149C331.118 241.539 347.746 186.73 323.964 145.169L323.973 145.178ZM297.8 197.177C292.484 237.566 221.147 242.803 213.367 195.327C209.118 169.369 222.141 145.059 249.868 142.129C285.513 138.357 302.131 164.269 297.8 197.177Z" fill="#007BFE"/>
</g>
<defs>
<clipPath id="clip0_1_460">
<rect width="1410" height="224" fill="white"/>
</clipPath>
</defs>
</svg>
