<svg width="765" height="122" viewBox="0 0 765 122" fill="none" xmlns="http://www.w3.org/2000/svg">
<g clip-path="url(#clip0_332_39)">
<path d="M50.2449 14.7318C63.0182 13.7244 75.1379 16.0234 86.2796 22.3019C87.6767 23.0898 92.1323 25.3888 92.272 26.8151C92.4566 28.7051 83.3307 41.2672 81.5046 41.5215C79.2692 41.8357 68.8211 37.0233 65.4232 36.1655C52.0561 32.7844 39.0434 34.9238 29.633 45.4911C6.19208 71.8071 31.7985 109.119 65.7076 100.497C68.6514 99.7488 78.6306 94.5923 79.9229 94.9414C81.4197 95.3453 89.6775 107.533 89.7673 109.129C89.887 111.249 83.226 114.585 81.29 115.577C42.7905 135.32 -5.61822 107.124 0.53391 62.292C4.2212 35.3926 22.9869 16.8811 50.2449 14.7318Z" fill="#007BFE"/>
<path d="M254.418 121.8V71.1831C254.418 64.1067 247.946 55.7087 240.692 54.9806C233.267 54.2376 224.605 56.0179 220.973 63.1891C220.544 64.0319 218.992 68.0713 218.992 68.6897V121.8H199.034V40.7629C199.034 38.4789 208.933 38.8629 210.779 38.9976C215.958 39.3816 217.804 40.0249 219.74 44.9918C227.789 39.3516 237.663 35.8059 247.642 37.0626C287.02 42.0296 271.752 92.3526 274.9 119.083C275.249 120.065 273.234 121.8 272.63 121.8H254.418Z" fill="#007BFE"/>
<path d="M387.14 37.5215V89.6348C387.14 89.8692 388.447 93.4697 388.702 94.0582C394.001 106.421 417.801 105.129 420.855 91.4101C423.988 77.3221 420.351 55.4445 421.548 40.2394C421.623 39.2769 421.843 38.4341 422.072 37.5215H441.531V88.6374C441.531 98.327 434.401 110.206 426.213 115.218C401.8 130.168 367.496 118.629 366.668 87.66L366.688 37.5215H387.145H387.14Z" fill="#007BFE"/>
<path d="M315.191 36.6739C323.533 35.8909 331.651 37.2125 339.5 40.0052C340.742 40.449 346.535 42.7679 346.994 43.501C347.254 43.9149 347.234 44.2341 347.219 44.6929C347.164 46.1291 340.373 58.1925 339.23 58.7161C337.389 59.5589 325.823 55.3898 322.695 54.8063C319.846 54.2777 318.179 53.794 315.295 54.7315C308.32 56.9956 307.691 63.5883 314.617 66.8697C325.27 71.9214 338.801 71.1485 346.984 81.3966C354.658 91.0114 351.375 106.062 342.244 113.572C328.104 125.207 306.209 122.793 290.667 115.243C289.649 114.749 286.905 113.777 286.865 112.605C286.835 111.562 292.299 100.412 293.242 99.0104C293.651 98.407 293.89 97.6739 294.689 97.4395C296.575 96.886 306.653 101.833 309.797 102.601C315.4 103.967 328.094 105.174 330.653 98.5017C332.929 92.5723 328.662 90.9914 324.032 89.3707C310.061 84.4785 289.599 83.0522 288.826 63.7229C288.192 47.8296 300.292 38.0702 315.191 36.6689V36.6739Z" fill="#007BFE"/>
<path d="M669.465 43.0872C669.879 43.7454 669.545 46.0195 669.16 46.8623C667.374 48.7722 662.918 59.3495 661.092 59.7734C659.266 60.1973 648.878 55.7789 644.866 55.4597C626.5 54.0035 614.036 67.6777 618.511 85.7901C622.273 101.01 637.047 105.299 650.968 101.489C653.338 100.841 660.159 97.5044 661.701 97.9532C662.993 98.3273 670.473 109.727 670.552 111.134C670.667 113.223 665.378 116.2 663.582 117.093C633.994 131.75 595.32 111.966 597.705 77.1827C599.98 43.9449 630.736 29.3282 660.548 39.2971C661.691 39.6811 669.205 42.6882 669.465 43.0971V43.0872Z" fill="#0360C3"/>
<path d="M542.316 58.4669H525.351V94.1234C525.351 98.457 530.131 102.601 534.203 103.23C536.598 103.599 539.432 102.955 541.568 103.349C544.841 103.948 543.992 115.293 543.084 117.831C541.153 123.247 531.159 122.205 526.744 121.152C498.612 114.445 505.952 79.9556 504.889 58.4669H494.91V41.7607C494.91 38.9381 503.138 39.4967 504.35 37.7313C506.271 34.9287 503.008 28.3409 507.873 23.7978C509.24 22.5262 521.774 15.9434 523.081 16.0631C524.024 16.1479 524.718 16.9059 524.833 17.8335C525.586 21.4291 523.785 36.305 525.092 38.5192C526.295 40.5589 542.311 38.4793 542.311 41.2571V58.4619L542.316 58.4669Z" fill="#007BFE"/>
<path d="M459.489 121.801V1.36659C459.489 1.28181 460.258 0.488894 460.497 0.379182C461.53 -0.104549 473.475 -0.0895883 475.097 0.234561C478.105 0.842966 478.824 3.23669 479.408 5.8997L479.472 117.088C479.672 117.941 478.38 121.806 477.706 121.806H459.494L459.489 121.801Z" fill="#007BFE"/>
<path d="M583.23 43.5055V121.8H564.27V54.2274C564.27 53.8384 565.223 52.9058 565.592 52.5567C566.77 51.4347 579.728 43.9194 581.1 43.6202C581.808 43.4656 582.517 43.4706 583.23 43.5055Z" fill="#0360C3"/>
<path d="M572.577 14.7612C580.376 14.452 586.299 24.0967 581.454 31.0085C573.396 42.4984 556.721 29.9713 564.509 19.5586C566.296 17.1698 569.504 14.8808 572.577 14.7612Z" fill="#0360C3"/>
<path d="M719.345 36.6743C662 39.7911 666.785 126.269 726.176 121.796C780.273 117.722 777.693 33.5026 719.345 36.6743ZM742.986 90.7225C737.482 103.414 717.04 107.254 707.146 98.6916C694.008 87.3214 695.994 61.4942 714.056 56.3277C736.045 50.0392 751.618 70.8097 742.986 90.7275V90.7225Z" fill="#0360C3"/>
<path d="M175.772 57.285C157.461 25.1592 105.414 31.1934 96.8922 68.336C88.7094 104.012 120.243 131.037 154.382 118.814C179.649 109.767 188.67 79.9156 175.767 57.28L175.772 57.285ZM161.572 85.6057C158.688 107.603 119.984 110.455 115.763 84.5983C113.458 70.4604 120.523 57.2201 135.566 55.6243C154.906 53.5697 163.922 67.6827 161.572 85.6057Z" fill="#007BFE"/>
</g>
<defs>
<clipPath id="clip0_332_39">
<rect width="765" height="122" fill="white"/>
</clipPath>
</defs>
</svg>
