<svg xmlns="http://www.w3.org/2000/svg" viewBox="0 0 128 128">
  <path
    fill="#007BFE"
    transform="translate(18 -4)"
    d="M50.2449 14.7318C63.0182 13.7244 75.1379 16.0234 86.2796 22.3019C87.6767 23.0898 92.1323 25.3888 92.272 26.8151C92.4566 28.7051 83.3307 41.2672 81.5046 41.5215C79.2692 41.8357 68.8211 37.0233 65.4232 36.1655C52.0561 32.7844 39.0434 34.9238 29.633 45.4911C6.19208 71.8071 31.7985 109.119 65.7076 100.497C68.6514 99.7488 78.6306 94.5923 79.9229 94.9414C81.4197 95.3453 89.6775 107.533 89.7673 109.129C89.887 111.249 83.226 114.585 81.29 115.577C42.7905 135.32 -5.61822 107.124 0.53391 62.292C4.2212 35.3926 22.9869 16.8811 50.2449 14.7318Z"
  />
</svg>
